<?xml version="1.0" encoding="UTF-8" standalone="no"?>
<!DOCTYPE svg PUBLIC "-//W3C//DTD SVG 1.1//EN" "http://www.w3.org/Graphics/SVG/1.1/DTD/svg11.dtd">
<svg width="100%" height="100%" viewBox="0 0 1080 1080" version="1.1" xmlns="http://www.w3.org/2000/svg" xmlns:xlink="http://www.w3.org/1999/xlink" xml:space="preserve" xmlns:serif="http://www.serif.com/" style="fill-rule:evenodd;clip-rule:evenodd;stroke-linejoin:round;stroke-miterlimit:1.41421;">
    <g transform="matrix(4.82127,0,0,4.82127,-1946.12,-856.744)">
        <g>
            <g transform="matrix(2.39468,0,0,2.39468,-2912.97,-1604.74)">
                <path d="M1404.32,799.111L1386.27,799.111L1386.27,764.111L1389.87,764.111L1389.87,795.861L1404.32,795.861L1404.32,799.111Z" style="fill:rgb(50,50,50);fill-rule:nonzero;stroke:rgb(52,49,48);stroke-width:0.09px;"/>
            </g>
            <g transform="matrix(2.39468,0,0,2.39468,-2912.97,-1604.74)">
                <path d="M1406.22,786.511C1406.22,781.544 1408.76,779.061 1413.82,779.061C1414.52,779.061 1415.27,779.111 1416.07,779.211C1418.44,779.611 1420.37,780.361 1421.87,781.461C1421.87,778.028 1419.52,776.311 1414.82,776.311L1415.07,773.661C1417.77,773.661 1419.77,773.978 1421.07,774.611C1421.77,774.978 1422.39,775.344 1422.92,775.711C1423.45,776.078 1423.87,776.561 1424.17,777.161C1424.47,777.761 1424.72,778.286 1424.92,778.736C1425.12,779.186 1425.26,779.794 1425.32,780.561C1425.42,781.728 1425.47,782.944 1425.47,784.211L1425.47,799.111C1422.01,799.444 1419.24,799.611 1417.17,799.611C1409.87,799.611 1406.22,796.628 1406.22,790.661L1406.22,786.511ZM1421.87,796.061L1421.87,784.711C1419.61,783.544 1417.15,782.811 1414.52,782.511C1414.29,782.511 1414.06,782.511 1413.82,782.511C1412.76,782.511 1411.82,782.836 1411.02,783.486C1410.22,784.136 1409.82,785.244 1409.82,786.811L1409.82,790.711C1409.82,794.511 1412.42,796.411 1417.62,796.411C1418.89,796.411 1420.31,796.294 1421.87,796.061Z" style="fill:rgb(50,50,50);fill-rule:nonzero;stroke:rgb(52,49,48);stroke-width:0.09px;"/>
            </g>
            <g transform="matrix(2.39468,0,0,2.39468,-2912.97,-1604.74)">
                <rect x="1431.17" y="764.111" width="3.6" height="35" style="fill:rgb(50,50,50);fill-rule:nonzero;stroke:rgb(52,49,48);stroke-width:0.09px;"/>
            </g>
            <g transform="matrix(2.39468,0,0,2.39468,-2912.97,-1604.74)">
                <path d="M1444.12,792.211C1444.12,795.044 1445.79,796.461 1449.12,796.461C1451.19,796.461 1453.45,795.778 1455.92,794.411L1457.27,797.361C1454.7,798.928 1452.02,799.711 1449.22,799.711C1443.42,799.711 1440.52,797.278 1440.52,792.411L1440.52,782.161C1440.52,779.461 1441.36,777.361 1443.05,775.861C1444.73,774.361 1446.95,773.611 1449.72,773.611C1452.49,773.611 1454.65,774.353 1456.2,775.836C1457.75,777.319 1458.52,779.378 1458.52,782.011L1458.52,788.861L1444.12,789.611L1444.12,792.211ZM1454.87,785.661L1454.87,781.811C1454.87,780.044 1454.32,778.786 1453.22,778.036C1452.12,777.286 1450.84,776.911 1449.37,776.911C1447.9,776.911 1446.66,777.361 1445.65,778.261C1444.63,779.161 1444.12,780.478 1444.12,782.211L1444.12,786.211L1454.87,785.661Z" style="fill:rgb(50,50,50);fill-rule:nonzero;stroke:rgb(52,49,48);stroke-width:0.09px;"/>
            </g>
            <path d="M595.092,207.157C594.662,203.388 592.015,201.504 587.15,201.504C584.472,201.504 581.584,202.221 578.485,203.655C577.89,203.929 577.209,203.955 576.594,203.727C575.979,203.499 575.48,203.036 575.207,202.439C575.194,202.445 575.194,202.444 575.193,202.444C574.554,201.047 575.142,199.396 576.52,198.718C579.896,197.114 583.383,196.301 586.99,196.301C595.816,196.301 600.447,199.821 600.883,206.861C600.906,206.992 600.917,207.126 600.917,207.263L600.917,298.966C601.343,302.628 603.87,304.504 608.496,304.596C613.585,304.495 615.984,302.228 615.984,297.796L615.984,259.224C615.984,257.637 617.27,256.35 618.857,256.35C619.782,256.35 620.806,256.35 621.731,256.35C622.493,256.35 623.224,256.653 623.763,257.192C624.302,257.731 624.605,258.462 624.605,259.224L624.605,299.618C624.605,306.96 618.082,309.508 609.559,309.777C609.382,309.794 609.201,309.802 609.016,309.802C608.862,309.802 608.71,309.801 608.558,309.799C608.365,309.801 608.171,309.802 607.976,309.802C607.629,309.802 607.294,309.778 606.969,309.734C599.049,309.184 595.089,305.311 595.089,298.116L595.089,281.708C595.089,281.708 595.089,261.678 595.089,261.678C595.094,261.509 595.101,261.092 595.089,260.471C595.089,260.471 595.089,217.856 595.089,207.263C595.089,207.227 595.09,207.192 595.092,207.157Z" style="fill:rgb(50,50,50);stroke:rgb(52,49,48);stroke-width:0.65px;"/>
            <g transform="matrix(-0.15729,-0.128361,0.177154,-0.21708,569.538,260.354)">
                <path d="M165.354,103.476L165.123,103.598L164.886,103.714L164.644,103.823L164.397,103.927L164.145,104.024L163.888,104.115L163.628,104.199L163.363,104.276L163.095,104.347L162.823,104.411L162.549,104.468L162.272,104.518L161.993,104.561L161.712,104.597L161.429,104.626L161.145,104.648L160.86,104.662L160.575,104.669L160.289,104.669L160.004,104.662L159.719,104.647L159.435,104.626L159.153,104.597L158.872,104.561L158.592,104.518L158.315,104.468L158.041,104.411L157.77,104.347L157.501,104.276L157.237,104.198L156.976,104.114L156.72,104.024L156.468,103.926L156.22,103.823L155.978,103.713L155.742,103.597L155.511,103.476L155.286,103.348L155.067,103.215L154.855,103.077L154.65,102.933L154.452,102.784L154.261,102.63L154.078,102.472L153.902,102.309L153.735,102.141L153.575,101.97L153.424,101.794L153.281,101.615L153.148,101.432L153.023,101.246L152.907,101.057L152.8,100.865L152.703,100.671L152.615,100.474L152.536,100.275L152.467,100.075L152.373,99.776L152.279,99.482L152.184,99.189L152.088,98.895L151.991,98.6L151.892,98.304L151.793,98.009L151.692,97.713L151.591,97.417L151.488,97.122L151.384,96.827L151.28,96.531L151.174,96.236L151.067,95.941L150.959,95.647L150.85,95.353L150.74,95.06L150.629,94.767L150.518,94.476L150.405,94.185L150.291,93.896L150.176,93.607L150.06,93.32L149.944,93.033L149.826,92.749L149.708,92.465L149.588,92.184L149.468,91.904L149.347,91.625L149.225,91.349L149.103,91.075L148.979,90.802L148.855,90.532L148.73,90.265L148.604,89.999L148.478,89.736L148.351,89.475L148.223,89.218L148.095,88.962L147.966,88.71L147.837,88.462L147.707,88.216L147.577,87.973L147.446,87.734L147.314,87.497L147.183,87.265L147.052,87.036L146.92,86.812L146.788,86.591L146.656,86.374L146.524,86.161L146.392,85.953L146.26,85.749L146.125,85.543L146.063,85.451L145.998,85.355L145.933,85.26L145.867,85.166L145.801,85.071L145.737,84.98L145.672,84.89L145.608,84.801L145.544,84.713L145.479,84.626L145.416,84.542L145.352,84.457L145.288,84.375L145.225,84.294L145.162,84.214L145.1,84.136L145.039,84.06L144.978,83.985L144.917,83.912L144.842,83.823L144.698,83.645L144.563,83.463L144.437,83.278L144.32,83.09L144.211,82.899L144.112,82.706L144.023,82.51L143.943,82.312L143.872,82.112L143.811,81.911L143.76,81.708L143.718,81.504L143.687,81.299L143.665,81.093L143.653,80.887L143.651,80.681L143.659,80.474L143.677,80.268L143.705,80.063L143.743,79.859L143.79,79.655L143.847,79.453L143.914,79.253L143.991,79.054L144.077,78.857L144.172,78.663L144.277,78.471L144.391,78.282L144.514,78.096L144.645,77.913L144.786,77.733L144.935,77.558L145.092,77.386L145.258,77.218L145.431,77.054L145.531,76.963L145.649,76.857L145.773,76.747L145.902,76.634L146.035,76.519L146.173,76.401L146.316,76.281L146.463,76.158L146.616,76.033L146.773,75.906L146.934,75.778L147.101,75.647L147.273,75.514L147.45,75.38L147.631,75.245L147.817,75.109L148.009,74.97L148.205,74.831L148.407,74.691L148.613,74.55L148.825,74.408L149.043,74.265L149.265,74.122L149.493,73.979L149.726,73.836L149.965,73.692L150.21,73.548L150.46,73.405L150.717,73.262L150.979,73.119L151.236,72.983L151.384,72.907L151.544,72.825L151.707,72.744L151.853,72.673L152,72.603L152.148,72.532L152.3,72.462L152.453,72.392L152.609,72.323L152.758,72.257L152.95,72.174L153.154,72.087L153.361,72.001L153.568,71.917L153.778,71.834L153.989,71.753L154.201,71.673L154.416,71.595L154.633,71.518L154.851,71.444L155.071,71.371L155.27,71.307L155.358,71.266L155.971,71.098L155.744,71.163L155.517,71.23L155.293,71.3L155.27,71.307L154.79,71.529L154.933,71.469L155.164,71.375L155.399,71.286L155.637,71.203L155.88,71.126L155.903,71.119L156.616,70.901L156.831,70.869L156.858,70.862L157.05,70.816L157.242,70.771L157.435,70.728L157.63,70.686L157.825,70.646L158.02,70.608L158.216,70.571L158.413,70.536L158.612,70.502L158.812,70.47L159.01,70.439L159.211,70.41L159.412,70.383L159.613,70.358L159.815,70.335L160.018,70.313L160.222,70.293L160.424,70.274L160.629,70.258L160.834,70.243L161.039,70.23L161.245,70.219L161.451,70.209L161.655,70.202L161.862,70.196L162.07,70.193L162.274,70.191L162.481,70.191L162.689,70.193L162.895,70.196L163.1,70.202L163.306,70.209L163.513,70.218L163.719,70.23L163.927,70.243L164.131,70.257L164.337,70.274L164.541,70.293L164.744,70.313L164.95,70.335L165.152,70.359L165.356,70.385L165.558,70.413L165.758,70.442L165.963,70.473L166.162,70.506L166.361,70.541L166.561,70.577L166.76,70.615L166.955,70.655L167.15,70.696L167.349,70.74L167.544,70.784L167.736,70.83L167.93,70.878L168.122,70.928L168.313,70.979L168.503,71.032L168.69,71.085L168.766,71.108L168.818,71.122L169.073,71.201L169.324,71.285L169.571,71.376L169.814,71.473L170.052,71.576L170.287,71.681L169.856,71.458L169.674,71.394L169.402,71.304L169.129,71.216L169.764,71.41L169.856,71.458L169.945,71.489L170.21,71.585L170.472,71.683L170.732,71.785L170.989,71.89L171.244,71.997L171.494,72.106L171.743,72.218L171.989,72.332L172.231,72.448L172.47,72.566L172.708,72.687L172.943,72.81L173.176,72.935L173.406,73.063L173.632,73.191L173.857,73.321L174.08,73.454L174.299,73.588L174.517,73.725L174.734,73.863L174.947,74.003L175.157,74.144L175.367,74.288L175.575,74.433L175.78,74.579L175.983,74.727L176.184,74.877L176.357,75.008L176.551,75.161L176.738,75.319L176.917,75.482L177.089,75.648L177.252,75.82L177.406,75.995L177.552,76.174L177.689,76.356L177.818,76.542L177.937,76.732L178.047,76.924L178.148,77.118L178.239,77.316L178.32,77.515L178.392,77.716L178.454,77.919L178.506,78.124L178.548,78.33L178.581,78.536L178.603,78.744L178.615,78.951L178.617,79.159L178.609,79.367L178.591,79.575L178.562,79.782L178.524,79.988L178.476,80.193L178.418,80.396L178.35,80.598L178.273,80.799L178.185,80.997L178.088,81.193L177.982,81.386L177.867,81.576L177.742,81.763L177.608,81.947L177.466,82.128L177.377,82.236L177.308,82.321L177.247,82.397L177.195,82.464L177.151,82.52L177.117,82.564L177.095,82.593L177.07,82.627L176.955,82.777L176.834,82.925L176.707,83.071L176.575,83.214L176.498,83.294L176.437,83.358L176.377,83.423L176.315,83.49L176.253,83.56L176.19,83.631L176.126,83.704L176.062,83.778L175.997,83.855L175.931,83.933L175.866,84.013L175.799,84.095L175.732,84.178L175.665,84.263L175.598,84.35L175.529,84.439L175.461,84.529L175.393,84.62L175.324,84.713L175.255,84.807L175.185,84.904L175.116,85.001L175.046,85.1L174.975,85.201L174.906,85.302L174.835,85.406L174.765,85.51L174.695,85.616L174.624,85.724L174.553,85.833L174.482,85.942L174.412,86.053L174.341,86.166L174.27,86.28L174.199,86.395L174.128,86.511L174.057,86.628L173.989,86.742L173.844,86.988L173.703,87.233L173.562,87.482L173.421,87.735L173.281,87.992L173.141,88.253L173.002,88.518L172.863,88.786L172.725,89.058L172.587,89.333L172.451,89.611L172.314,89.892L172.179,90.176L172.045,90.463L171.911,90.752L171.779,91.044L171.647,91.339L171.516,91.635L171.386,91.934L171.257,92.235L171.129,92.537L171.002,92.842L170.877,93.148L170.752,93.455L170.628,93.765L170.506,94.075L170.384,94.386L170.264,94.699L170.145,95.012L170.026,95.327L169.91,95.642L169.794,95.958L169.679,96.274L169.566,96.591L169.454,96.908L169.343,97.225L169.233,97.542L169.124,97.859L169.017,98.176L168.911,98.493L168.807,98.809L168.703,99.125L168.601,99.441L168.5,99.755L168.398,100.076L168.329,100.276L168.251,100.475L168.163,100.672L168.065,100.867L167.959,101.058L167.843,101.247L167.718,101.433L167.584,101.616L167.441,101.795L167.29,101.971L167.131,102.142L166.963,102.31L166.787,102.473L166.604,102.631L166.413,102.785L166.215,102.934L166.009,103.078L165.797,103.216L165.579,103.349L165.354,103.476ZM156.125,71.054L155.903,71.119L155.885,71.125L156.14,71.05L156.125,71.054ZM156.14,71.05L156.14,71.05L156.144,71.049L156.14,71.05ZM156.144,71.049L156.191,71.037L156.196,71.035L156.144,71.049ZM156.831,70.869L156.668,70.91L156.479,70.959L156.291,71.009L156.196,71.035L156.374,70.988L156.389,70.985L156.399,70.982L156.499,70.959L156.626,70.928L156.64,70.925L156.661,70.921L156.8,70.891L156.88,70.874L156.893,70.872L156.925,70.865L157.085,70.836L157.136,70.826L157.147,70.825L157.192,70.816L157.363,70.79L157.395,70.784L156.831,70.869ZM162.896,76.723L162.907,76.709L162.882,76.735L162.87,76.751L162.896,76.723Z" style="fill:rgb(52,49,48);"/>
                <path d="M160.433,98.748C162.631,91.789 165.794,84.04 169.864,79.833C169.959,79.703 170.16,79.44 170.444,79.097C168.909,77.92 167.335,77.082 165.752,76.612C165.751,76.612 165.751,76.611 165.75,76.611C165.75,76.611 165.748,76.611 165.747,76.611C163.568,75.956 161.318,75.947 159.061,76.582C159.059,76.582 159.057,76.582 159.055,76.583C159.052,76.583 159.05,76.585 159.047,76.586C158.393,76.762 157.716,77.005 156.977,77.329C156.713,77.444 156.451,77.567 156.205,77.69C154.239,78.686 152.709,79.934 151.824,80.744C155.499,85.089 158.385,92.26 160.433,98.748Z" style="fill:rgb(246,206,217);fill-rule:nonzero;"/>
            </g>
            <g transform="matrix(-0.15729,-0.128361,0.177154,-0.21708,568.929,259.581)">
                <path d="M184.149,156.13L183.861,156.298L183.576,156.459L183.419,156.546L183.27,156.629L183.119,156.711L182.967,156.793L182.814,156.874L182.66,156.955L182.505,157.036L182.348,157.117L182.191,157.197L182.032,157.277L181.872,157.356L181.711,157.435L181.548,157.514L181.385,157.593L181.221,157.67L181.055,157.748L180.888,157.825L180.72,157.902L180.55,157.978L180.38,158.054L180.208,158.129L180.035,158.204L179.861,158.278L179.686,158.352L179.509,158.425L179.332,158.498L179.153,158.57L178.973,158.642L178.792,158.713L178.609,158.784L178.426,158.854L178.241,158.923L178.055,158.992L177.868,159.06L177.68,159.128L177.49,159.195L177.299,159.261L177.107,159.327L176.915,159.392L176.72,159.456L176.525,159.52L176.328,159.583L176.131,159.645L175.932,159.707L175.732,159.768L175.531,159.828L175.329,159.887L175.125,159.946L174.92,160.004L174.714,160.061L174.507,160.117L174.3,160.173L174.09,160.227L173.879,160.281L173.668,160.334L173.455,160.387L173.241,160.438L173.027,160.489L172.811,160.538L172.593,160.587L172.375,160.635L172.156,160.682L171.936,160.728L171.714,160.774L171.491,160.818L171.267,160.861L171.043,160.904L170.816,160.945L170.589,160.986L170.361,161.025L170.132,161.064L169.902,161.102L169.671,161.138L169.439,161.174L169.205,161.209L168.97,161.242L168.735,161.275L168.499,161.306L168.261,161.337L168.022,161.367L167.783,161.395L167.542,161.422L167.301,161.449L167.059,161.474L166.814,161.498L166.57,161.521L166.324,161.543L166.077,161.564L165.831,161.584L165.57,161.603L165.165,161.631L164.953,161.645L164.757,161.657L164.258,161.676L163.758,161.674L163.259,161.649L162.763,161.602L162.272,161.534L161.787,161.443L161.311,161.332L160.846,161.199L160.392,161.046L159.953,160.873L159.528,160.682L159.121,160.471L158.732,160.243L158.364,159.998L158.269,159.932L158.147,159.844L158.015,159.749L157.878,159.647L157.739,159.542L157.592,159.43L157.439,159.312L157.281,159.187L157.12,159.057L156.953,158.922L156.782,158.78L156.606,158.631L156.426,158.476L156.244,158.316L156.057,158.15L155.892,157.999L155.576,157.693L155.289,157.372L155.03,157.039L154.802,156.694L154.606,156.339L154.441,155.976L154.308,155.606L154.209,155.23L154.144,154.851L154.113,154.469L154.115,154.087L154.152,153.705L154.223,153.326L154.327,152.952L154.464,152.582L154.634,152.22L154.836,151.867L155.069,151.524L155.332,151.193L155.433,151.074L155.52,150.971L155.607,150.866L155.694,150.759L155.781,150.65L155.869,150.539L155.956,150.427L156.043,150.312L156.13,150.196L156.217,150.078L156.304,149.957L156.391,149.835L156.477,149.711L156.564,149.585L156.649,149.457L156.735,149.327L156.819,149.196L156.904,149.062L156.988,148.926L157.071,148.789L157.154,148.649L157.236,148.508L157.317,148.365L157.397,148.22L157.477,148.072L157.556,147.923L157.634,147.772L157.711,147.619L157.787,147.464L157.861,147.306L157.935,147.148L158.008,146.986L158.079,146.823L158.15,146.658L158.219,146.491L158.286,146.321L158.352,146.15L158.417,145.976L158.481,145.801L158.542,145.624L158.603,145.444L158.662,145.262L158.719,145.078L158.774,144.892L158.827,144.704L158.879,144.514L158.931,144.315L158.953,144.224L158.977,144.126L159.001,144.028L159.023,143.93L159.046,143.83L159.067,143.73L159.089,143.63L159.109,143.529L159.129,143.428L159.149,143.326L159.168,143.223L159.187,143.12L159.205,143.016L159.222,142.911L159.239,142.807L159.256,142.702L159.271,142.595L159.287,142.488L159.301,142.381L159.315,142.273L159.329,142.165L159.341,142.056L159.353,141.947L159.365,141.837L159.376,141.726L159.386,141.614L159.396,141.502L159.405,141.39L159.413,141.277L159.42,141.164L159.427,141.049L159.434,140.934L159.439,140.818L159.444,140.704L159.449,140.567L159.453,140.423L159.456,140.276L159.459,140.125L159.461,139.969L159.462,139.809L159.462,139.645L159.462,139.477L159.461,139.306L159.459,139.131L159.456,138.951L159.453,138.768L159.449,138.582L159.444,138.397L159.431,138.003L159.415,137.601L159.396,137.185L159.373,136.757L159.347,136.317L159.318,135.866L159.286,135.403L159.25,134.93L159.212,134.446L159.169,133.952L159.124,133.448L159.076,132.934L159.024,132.411L158.969,131.879L158.911,131.339L158.849,130.79L158.785,130.234L158.717,129.669L158.646,129.097L158.573,128.518L158.495,127.932L158.415,127.339L158.332,126.74L158.246,126.136L158.157,125.525L158.064,124.909L157.969,124.288L157.871,123.662L157.77,123.031L157.665,122.396L157.558,121.757L157.448,121.114L157.335,120.467L157.219,119.817L157.101,119.165L156.979,118.509L156.855,117.851L156.727,117.192L156.597,116.53L156.464,115.866L156.329,115.201L156.191,114.535L156.05,113.869L155.906,113.201L155.759,112.534L155.61,111.866L155.459,111.199L155.304,110.533L155.147,109.867L154.988,109.203L154.826,108.539L154.661,107.878L154.494,107.216L154.41,106.889L154.325,106.561L154.239,106.233L154.153,105.906L154.066,105.58L153.978,105.254L153.89,104.929L153.8,104.6L153.723,104.268L153.671,103.934L153.646,103.599L153.648,103.263L153.675,102.927L153.729,102.594L153.809,102.262L153.951,101.759L154.096,101.252L154.242,100.749L154.389,100.25L154.537,99.756L154.685,99.266L154.834,98.78L154.984,98.299L155.135,97.822L155.287,97.35L155.44,96.881L155.593,96.417L155.747,95.958L155.902,95.503L156.058,95.052L156.215,94.605L156.373,94.164L156.531,93.726L156.69,93.293L156.85,92.864L157.011,92.439L157.173,92.019L157.336,91.604L157.5,91.193L157.664,90.786L157.83,90.383L157.996,89.986L158.163,89.592L158.331,89.203L158.5,88.818L158.671,88.438L158.842,88.062L159.014,87.69L159.187,87.323L159.361,86.96L159.537,86.601L159.713,86.247L159.891,85.897L160.07,85.551L160.25,85.21L160.432,84.872L160.612,84.544L160.706,84.374L160.799,84.211L160.891,84.048L160.985,83.886L161.078,83.725L161.172,83.565L161.266,83.407L161.361,83.249L161.456,83.092L161.551,82.937L161.647,82.781L161.744,82.628L161.84,82.475L161.938,82.323L162.035,82.173L162.134,82.023L162.233,81.874L162.332,81.726L162.432,81.58L162.532,81.434L162.634,81.289L162.735,81.145L162.838,81.002L162.94,80.86L163.044,80.718L163.149,80.578L163.254,80.438L163.359,80.3L163.466,80.163L163.573,80.026L163.681,79.89L163.79,79.755L163.9,79.62L164.011,79.487L164.122,79.355L164.235,79.223L164.348,79.092L164.462,78.963L164.578,78.833L164.695,78.705L164.813,78.577L164.928,78.455L164.973,78.395L165.061,78.282L165.161,78.155L165.272,78.015L165.396,77.863L165.531,77.7L165.678,77.525L165.837,77.34L166.007,77.146L166.189,76.942L166.383,76.73L166.564,76.537L166.581,76.52L166.598,76.501L166.713,76.38L166.846,76.241L166.985,76.099L167.129,75.954L167.277,75.807L167.43,75.656L167.589,75.503L167.752,75.348L167.921,75.191L168.095,75.031L168.274,74.87L168.457,74.707L168.647,74.542L168.842,74.376L169.042,74.208L169.248,74.039L169.459,73.869L169.676,73.698L169.899,73.526L170.128,73.354L170.363,73.181L170.595,73.014L170.727,72.921L170.851,72.834L170.978,72.748L171.106,72.661L171.235,72.575L171.366,72.488L171.499,72.401L171.634,72.315L171.77,72.229L171.909,72.143L172.049,72.056L172.191,71.971L172.334,71.885L172.48,71.8L172.628,71.715L172.777,71.631L172.929,71.546L173.083,71.462L173.238,71.379L173.44,71.273L173.732,71.126L173.984,71.002L174.24,70.88L174.498,70.76L174.761,70.643L175.028,70.527L175.164,70.47L175.19,70.458L175.299,70.414L175.164,70.47L174.891,70.603L175.329,70.404L175.783,70.226L176.252,70.069L176.253,70.068L176.713,69.938L177.183,69.828L176.452,69.981L176.359,70.014L176.086,70.111L175.817,70.211L176.362,70L176.452,69.981L176.634,69.919L176.912,69.828L177.194,69.739L177.477,69.655L177.763,69.573L178.052,69.495L178.344,69.421L178.638,69.35L178.934,69.283L179.233,69.22L179.534,69.16L179.838,69.105L180.144,69.053L180.451,69.006L180.76,68.963L181.071,68.925L181.366,68.893L181.542,68.875L181.698,68.861L181.858,68.848L182.014,68.836L182.172,68.825L182.333,68.815L182.489,68.807L182.648,68.799L182.808,68.793L182.967,68.788L183.127,68.784L183.284,68.781L183.446,68.779L183.605,68.779L183.763,68.78L183.925,68.782L184.084,68.785L184.243,68.789L184.402,68.794L184.562,68.801L184.723,68.809L184.881,68.818L185.04,68.828L185.159,68.837L185.667,68.885L186.169,68.956L186.665,69.05L187.151,69.166L187.627,69.304L188.089,69.463L188.537,69.643L188.969,69.843L189.382,70.062L189.776,70.3L190.148,70.555L190.498,70.826L190.823,71.113L191.123,71.413L191.397,71.727L191.642,72.053L191.859,72.389L192.047,72.734L192.204,73.087L192.324,73.388L192.465,73.745L192.622,74.15L192.794,74.599L192.981,75.093L193.179,75.627L193.285,75.914L193.393,76.209L193.503,76.514L193.617,76.829L193.733,77.154L193.851,77.489L193.972,77.834L194.096,78.189L194.221,78.553L194.349,78.927L194.478,79.309L194.61,79.701L194.743,80.102L194.878,80.512L195.014,80.93L195.152,81.357L195.291,81.792L195.431,82.236L195.572,82.688L195.714,83.148L195.856,83.616L196,84.092L196.144,84.575L196.288,85.066L196.433,85.564L196.578,86.07L196.723,86.583L196.868,87.102L197.013,87.629L197.158,88.162L197.302,88.702L197.446,89.249L197.589,89.802L197.732,90.361L197.873,90.926L198.014,91.497L198.153,92.075L198.292,92.657L198.429,93.246L198.565,93.84L198.699,94.439L198.831,95.043L198.962,95.653L199.09,96.267L199.217,96.887L199.341,97.508L199.403,97.825L199.464,98.139L199.524,98.455L199.583,98.773L199.642,99.091L199.701,99.41L199.758,99.73L199.815,100.052L199.872,100.374L199.927,100.697L199.982,101.021L200.036,101.347L200.09,101.673L200.143,102.001L200.194,102.328L200.246,102.658L200.296,102.988L200.345,103.318L200.394,103.65L200.442,103.983L200.489,104.316L200.535,104.65L200.58,104.985L200.624,105.321L200.667,105.658L200.709,105.995L200.751,106.332L200.791,106.671L200.831,107.011L200.869,107.351L200.906,107.692L200.943,108.033L200.978,108.375L201.012,108.718L201.045,109.062L201.077,109.405L201.108,109.75L201.138,110.095L201.166,110.441L201.194,110.787L201.22,111.134L201.245,111.481L201.269,111.829L201.291,112.177L201.313,112.526L201.333,112.875L201.352,113.225L201.369,113.575L201.386,113.925L201.4,114.276L201.414,114.627L201.426,114.979L201.437,115.33L201.447,115.682L201.455,116.035L201.461,116.388L201.466,116.741L201.47,117.095L201.472,117.448L201.473,117.802L201.472,118.156L201.47,118.511L201.466,118.865L201.461,119.22L201.454,119.575L201.445,119.93L201.435,120.285L201.423,120.64L201.41,120.996L201.395,121.351L201.378,121.706L201.36,122.062L201.34,122.418L201.318,122.774L201.294,123.13L201.269,123.485L201.242,123.841L201.213,124.197L201.182,124.553L201.149,124.908L201.115,125.264L201.078,125.619L201.04,125.975L201,126.33L200.958,126.685L200.914,127.04L200.867,127.395L200.819,127.75L200.769,128.105L200.717,128.459L200.663,128.813L200.607,129.167L200.549,129.521L200.488,129.875L200.426,130.228L200.361,130.58L200.294,130.933L200.225,131.286L200.154,131.638L200.081,131.989L200.005,132.34L199.927,132.692L199.847,133.042L199.764,133.392L199.68,133.742L199.592,134.092L199.503,134.441L199.411,134.789L199.316,135.137L199.219,135.485L199.12,135.832L199.018,136.178L198.914,136.524L198.807,136.87L198.698,137.215L198.586,137.559L198.471,137.903L198.354,138.246L198.234,138.588L198.111,138.93L197.986,139.272L197.858,139.612L197.727,139.952L197.594,140.292L197.457,140.63L197.318,140.968L197.176,141.305L197.032,141.641L196.884,141.977L196.733,142.312L196.579,142.645L196.423,142.978L196.263,143.311L196.1,143.642L195.935,143.972L195.766,144.302L195.594,144.631L195.419,144.958L195.241,145.285L195.087,145.562L195.048,145.634L194.987,145.743L194.922,145.857L194.846,145.987L194.761,146.13L194.666,146.286L194.56,146.455L194.444,146.636L194.317,146.83L194.179,147.035L194.03,147.251L193.87,147.477L193.704,147.707L193.608,147.836L193.515,147.961L193.419,148.087L193.32,148.216L193.218,148.348L193.112,148.481L193.004,148.617L192.892,148.755L192.778,148.894L192.66,149.036L192.539,149.18L192.415,149.325L192.288,149.472L192.157,149.621L192.023,149.771L191.885,149.924L191.744,150.078L191.6,150.233L191.453,150.389L191.301,150.547L191.147,150.707L190.989,150.867L190.827,151.029L190.661,151.192L190.492,151.356L190.32,151.521L190.143,151.687L189.963,151.854L189.779,152.022L189.591,152.191L189.4,152.36L189.205,152.529L189.005,152.7L188.802,152.871L188.595,153.043L188.383,153.214L188.168,153.387L187.949,153.559L187.725,153.732L187.498,153.905L187.266,154.077L187.03,154.25L186.79,154.423L186.546,154.596L186.297,154.768L186.044,154.94L185.787,155.112L185.525,155.283L185.259,155.454L184.988,155.624L184.713,155.794L184.433,155.962L184.149,156.13ZM164.777,78.657L164.768,78.668L164.736,78.712L164.777,78.657ZM183.561,80.649L183.534,80.657L183.506,80.666L183.473,80.677L183.438,80.69L183.401,80.704L183.315,80.737L183.31,80.739L183.286,80.749L183.252,80.764L183.203,80.786L183.141,80.814L183.13,80.82L183.366,80.747L183.579,80.643L183.561,80.649ZM183.704,80.575L183.59,80.623L183.597,80.623L183.601,80.623L183.609,80.623L183.616,80.623L183.622,80.622L184.009,80.434L183.704,80.575ZM175.191,146.075L175.327,145.979L175.461,145.883L175.592,145.787L175.722,145.69L175.85,145.593L175.976,145.495L176.1,145.398L176.221,145.301L176.341,145.203L176.459,145.105L176.575,145.008L176.689,144.911L176.801,144.813L176.911,144.716L177.018,144.62L177.124,144.523L177.228,144.427L177.33,144.331L177.43,144.236L177.527,144.141L177.623,144.046L177.717,143.953L177.809,143.86L177.898,143.767L177.986,143.676L178.071,143.585L178.155,143.495L178.237,143.406L178.316,143.318L178.394,143.231L178.469,143.145L178.542,143.06L178.614,142.976L178.683,142.894L178.75,142.813L178.816,142.734L178.879,142.655L178.94,142.579L178.999,142.504L179.057,142.43L179.112,142.358L179.166,142.287L179.216,142.219L179.26,142.16L179.358,142.025L179.443,141.905L179.52,141.794L179.588,141.692L179.649,141.599L179.702,141.516L179.748,141.444L179.785,141.382L179.816,141.331L179.838,141.293L179.853,141.266L179.857,141.259L179.895,141.188L180.06,140.892L180.195,140.644L180.329,140.394L180.461,140.143L180.59,139.89L180.718,139.635L180.844,139.379L180.967,139.121L181.089,138.862L181.209,138.602L181.327,138.34L181.443,138.077L181.557,137.812L181.669,137.545L181.779,137.278L181.888,137.009L181.994,136.739L182.099,136.467L182.201,136.194L182.302,135.92L182.4,135.644L182.497,135.367L182.592,135.089L182.686,134.81L182.777,134.529L182.866,134.248L182.954,133.965L183.039,133.681L183.123,133.396L183.205,133.11L183.285,132.822L183.363,132.534L183.44,132.244L183.514,131.954L183.587,131.663L183.658,131.37L183.727,131.076L183.795,130.782L183.86,130.487L183.924,130.191L183.986,129.893L184.046,129.595L184.105,129.296L184.162,128.996L184.217,128.696L184.27,128.394L184.322,128.092L184.372,127.789L184.42,127.485L184.466,127.181L184.511,126.875L184.554,126.57L184.596,126.263L184.636,125.956L184.674,125.648L184.711,125.339L184.745,125.03L184.779,124.721L184.811,124.41L184.841,124.1L184.869,123.789L184.896,123.477L184.922,123.165L184.946,122.852L184.968,122.538L184.989,122.225L185.008,121.911L185.026,121.597L185.042,121.282L185.057,120.967L185.07,120.652L185.082,120.336L185.093,120.02L185.102,119.704L185.11,119.388L185.116,119.071L185.12,118.754L185.124,118.437L185.126,118.12L185.127,117.802L185.126,117.485L185.124,117.167L185.121,116.849L185.116,116.531L185.11,116.213L185.103,115.896L185.094,115.578L185.084,115.259L185.073,114.942L185.061,114.624L185.048,114.306L185.033,113.988L185.017,113.67L185,113.353L184.982,113.036L184.962,112.718L184.941,112.401L184.92,112.084L184.897,111.768L184.873,111.451L184.848,111.135L184.822,110.819L184.795,110.503L184.766,110.188L184.737,109.872L184.707,109.558L184.675,109.243L184.643,108.929L184.61,108.615L184.575,108.302L184.54,107.989L184.504,107.677L184.467,107.365L184.428,107.054L184.389,106.742L184.35,106.432L184.309,106.122L184.267,105.813L184.225,105.504L184.181,105.196L184.137,104.888L184.092,104.582L184.046,104.275L184,103.97L183.952,103.665L183.904,103.36L183.855,103.057L183.806,102.754L183.756,102.452L183.704,102.151L183.653,101.85L183.6,101.551L183.547,101.252L183.494,100.954L183.439,100.656L183.384,100.36L183.329,100.065L183.273,99.771L183.216,99.477L183.159,99.187L183.043,98.602L182.925,98.024L182.804,97.45L182.682,96.88L182.558,96.315L182.433,95.754L182.306,95.198L182.178,94.647L182.048,94.101L181.917,93.56L181.785,93.024L181.652,92.494L181.519,91.969L181.384,91.45L181.249,90.937L181.114,90.43L180.978,89.929L180.842,89.434L180.705,88.946L180.569,88.464L180.433,87.989L180.297,87.521L180.161,87.06L180.026,86.605L179.891,86.158L179.757,85.719L179.624,85.287L179.491,84.863L179.36,84.446L179.264,84.146L179.244,84.172L179.212,84.215L179.121,84.342L178.921,84.595L178.715,84.832L178.557,85L178.458,85.103L178.41,85.153L178.361,85.204L178.311,85.259L178.26,85.315L178.208,85.373L178.155,85.433L178.101,85.495L178.047,85.559L177.991,85.625L177.934,85.693L177.877,85.763L177.819,85.835L177.76,85.909L177.701,85.984L177.641,86.062L177.58,86.142L177.519,86.223L177.457,86.306L177.395,86.391L177.332,86.478L177.269,86.567L177.205,86.657L177.14,86.749L177.076,86.843L177.01,86.94L176.945,87.037L176.879,87.136L176.812,87.237L176.746,87.34L176.679,87.445L176.611,87.551L176.543,87.659L176.475,87.768L176.407,87.88L176.339,87.993L176.27,88.107L176.201,88.224L176.131,88.342L176.062,88.461L175.992,88.582L175.922,88.705L175.852,88.83L175.785,88.951L175.641,89.213L175.5,89.476L175.357,89.745L175.215,90.021L175.072,90.303L174.928,90.59L174.785,90.884L174.641,91.184L174.497,91.489L174.352,91.801L174.208,92.118L174.063,92.441L173.919,92.77L173.774,93.105L173.63,93.445L173.485,93.791L173.341,94.142L173.196,94.498L173.052,94.861L172.908,95.229L172.764,95.602L172.621,95.98L172.478,96.364L172.335,96.753L172.192,97.147L172.049,97.547L171.907,97.952L171.765,98.362L171.624,98.777L171.483,99.197L171.342,99.622L171.202,100.052L171.062,100.488L170.923,100.928L170.784,101.373L170.646,101.823L170.508,102.278L170.371,102.738L170.234,103.203L170.154,103.478L170.206,103.672L170.297,104.019L170.388,104.366L170.478,104.713L170.568,105.064L170.744,105.758L170.917,106.456L171.088,107.155L171.256,107.855L171.421,108.556L171.584,109.257L171.743,109.958L171.899,110.658L172.053,111.358L172.204,112.058L172.352,112.757L172.497,113.454L172.638,114.15L172.777,114.845L172.914,115.537L173.047,116.228L173.177,116.916L173.304,117.602L173.428,118.285L173.549,118.964L173.668,119.641L173.783,120.314L173.895,120.983L174.004,121.647L174.11,122.308L174.213,122.964L174.313,123.616L174.41,124.262L174.504,124.903L174.594,125.539L174.682,126.169L174.766,126.793L174.847,127.411L174.925,128.023L175,128.628L175.072,129.226L175.14,129.817L175.206,130.4L175.268,130.977L175.327,131.545L175.382,132.105L175.434,132.658L175.483,133.202L175.529,133.738L175.571,134.264L175.61,134.782L175.645,135.291L175.678,135.791L175.706,136.281L175.731,136.761L175.753,137.232L175.772,137.694L175.786,138.141L175.792,138.367L175.797,138.587L175.801,138.804L175.805,139.018L175.807,139.23L175.808,139.441L175.809,139.647L175.808,139.852L175.807,140.054L175.804,140.254L175.801,140.452L175.796,140.647L175.791,140.84L175.784,141.032L175.777,141.204L175.769,141.373L175.76,141.541L175.75,141.709L175.738,141.876L175.726,142.044L175.713,142.209L175.699,142.375L175.684,142.54L175.668,142.703L175.65,142.867L175.632,143.031L175.613,143.193L175.593,143.355L175.572,143.516L175.551,143.676L175.528,143.836L175.504,143.995L175.48,144.153L175.454,144.312L175.428,144.469L175.401,144.626L175.373,144.782L175.344,144.937L175.314,145.092L175.283,145.246L175.252,145.4L175.219,145.553L175.186,145.705L175.152,145.856L175.117,146.008L175.083,146.15L175.191,146.075Z" style="fill:rgb(52,49,48);"/>
                <path d="M178.173,76.101C176.056,77.206 174.372,78.754 173.332,79.857C173.332,79.858 173.331,79.858 173.331,79.859L173.33,79.859C172.468,80.77 171.981,81.455 171.976,81.461C171.936,81.52 171.889,81.576 171.839,81.627C168.251,85.29 164.789,92.835 161.817,103.448C165.735,117.695 167.877,133.916 167.614,140.868C167.378,146.98 164.757,151.432 162.283,154.308C163.051,155.013 163.7,155.5 164.066,155.756C164.301,155.742 164.535,155.726 164.766,155.71C181.469,154.496 187.252,143.829 187.491,143.375C201.204,119.002 186.638,80.431 184.352,74.73C182.736,74.608 181.094,74.871 179.455,75.517C179.453,75.517 179.452,75.518 179.451,75.518L179.449,75.519C179.067,75.668 178.661,75.853 178.173,76.101Z" style="fill:rgb(246,206,217);fill-rule:nonzero;"/>
            </g>
            <g transform="matrix(-0.181717,-0.0947264,0.150769,-0.234443,576.584,256.662)">
                <path d="M160.569,161.286L160.077,161.426L159.571,161.54L159.053,161.628L158.524,161.69L157.987,161.726L157.446,161.734L156.901,161.716L156.673,161.703L156.42,161.687L156.16,161.669L155.896,161.65L155.628,161.629L155.352,161.606L155.07,161.58L154.836,161.557L154.63,161.536L154.392,161.512L154.154,161.486L153.916,161.46L153.679,161.432L153.444,161.403L153.209,161.373L152.975,161.342L152.743,161.311L152.511,161.278L152.28,161.244L152.049,161.209L151.82,161.174L151.592,161.137L151.364,161.099L151.138,161.06L150.912,161.021L150.688,160.98L150.464,160.938L150.241,160.896L150.021,160.853L149.799,160.808L149.579,160.763L149.36,160.717L149.142,160.67L148.926,160.622L148.711,160.573L148.495,160.523L148.281,160.473L148.07,160.422L147.858,160.369L147.645,160.316L147.436,160.262L147.228,160.207L147.021,160.152L146.814,160.096L146.607,160.038L146.403,159.98L146.2,159.922L145.997,159.863L145.795,159.802L145.595,159.741L145.396,159.68L145.198,159.617L145.002,159.555L144.806,159.491L144.61,159.426L144.417,159.361L144.224,159.295L144.032,159.228L143.841,159.161L143.651,159.093L143.464,159.025L143.277,158.956L143.09,158.886L142.905,158.816L142.722,158.745L142.539,158.673L142.356,158.601L142.176,158.529L141.997,158.456L141.819,158.382L141.641,158.308L141.465,158.233L141.291,158.158L141.118,158.082L140.944,158.006L140.772,157.929L140.601,157.852L140.431,157.774L140.264,157.696L140.098,157.618L139.933,157.539L139.766,157.459L139.602,157.379L139.441,157.3L139.279,157.219L139.12,157.138L138.961,157.057L138.801,156.974L138.646,156.893L138.49,156.811L138.335,156.728L138.182,156.645L138.028,156.561L137.879,156.479L137.729,156.395L137.569,156.305L137.284,156.141L136.995,155.972L136.71,155.802L136.428,155.63L136.151,155.457L135.879,155.285L135.611,155.111L135.347,154.937L135.089,154.763L134.833,154.587L134.583,154.412L134.337,154.238L134.095,154.063L133.856,153.887L133.622,153.711L133.393,153.536L133.168,153.361L132.946,153.186L132.729,153.011L132.515,152.836L132.306,152.663L132.102,152.49L131.898,152.316L131.701,152.144L131.508,151.972L131.319,151.802L131.133,151.632L130.95,151.463L130.771,151.294L130.596,151.127L130.425,150.96L130.257,150.794L130.093,150.631L129.933,150.468L129.776,150.306L129.623,150.146L129.473,149.987L129.326,149.829L129.184,149.673L129.044,149.519L128.907,149.366L128.774,149.214L128.644,149.065L128.518,148.917L128.394,148.77L128.274,148.626L128.157,148.484L128.043,148.344L127.933,148.206L127.825,148.07L127.72,147.935L127.619,147.804L127.521,147.675L127.424,147.546L127.332,147.421L127.237,147.292L127.071,147.06L126.911,146.833L126.763,146.616L126.625,146.41L126.497,146.214L126.381,146.032L126.275,145.861L126.178,145.702L126.091,145.555L126.015,145.424L125.949,145.307L125.887,145.196L125.851,145.13L125.787,145.014L125.696,144.85L125.606,144.686L125.515,144.519L125.427,144.353L125.338,144.187L125.251,144.021L125.162,143.85L124.994,143.522L124.827,143.188L124.662,142.853L124.501,142.517L124.343,142.181L124.188,141.843L124.036,141.505L123.887,141.167L123.741,140.827L123.598,140.487L123.458,140.146L123.32,139.805L123.186,139.463L123.054,139.12L122.925,138.777L122.799,138.433L122.676,138.089L122.555,137.744L122.438,137.399L122.322,137.053L122.21,136.706L122.1,136.359L121.992,136.011L121.888,135.663L121.785,135.315L121.686,134.966L121.589,134.617L121.494,134.267L121.401,133.917L121.312,133.566L121.224,133.215L121.139,132.864L121.056,132.512L120.976,132.16L120.898,131.807L120.822,131.455L120.748,131.102L120.677,130.748L120.608,130.396L120.541,130.042L120.476,129.687L120.414,129.333L120.354,128.979L120.295,128.624L120.239,128.269L120.185,127.914L120.133,127.559L120.083,127.204L120.035,126.848L119.989,126.492L119.945,126.137L119.903,125.781L119.863,125.425L119.825,125.069L119.788,124.713L119.754,124.357L119.721,124.001L119.691,123.644L119.662,123.288L119.635,122.932L119.609,122.576L119.586,122.22L119.564,121.864L119.544,121.508L119.526,121.151L119.509,120.796L119.494,120.44L119.481,120.084L119.469,119.729L119.459,119.373L119.451,119.018L119.444,118.664L119.439,118.309L119.435,117.954L119.433,117.6L119.432,117.245L119.433,116.892L119.435,116.538L119.439,116.185L119.445,115.832L119.451,115.478L119.459,115.126L119.469,114.774L119.48,114.422L119.492,114.071L119.506,113.719L119.521,113.369L119.537,113.019L119.555,112.668L119.574,112.319L119.594,111.97L119.615,111.621L119.638,111.273L119.662,110.926L119.687,110.579L119.714,110.232L119.741,109.886L119.77,109.541L119.8,109.196L119.83,108.852L119.863,108.508L119.896,108.165L119.93,107.822L119.965,107.48L120.002,107.139L120.039,106.799L120.077,106.458L120.117,106.119L120.157,105.781L120.199,105.443L120.241,105.106L120.284,104.77L120.329,104.434L120.374,104.1L120.42,103.766L120.467,103.433L120.514,103.101L120.563,102.769L120.612,102.439L120.663,102.109L120.714,101.781L120.766,101.453L120.818,101.126L120.872,100.8L120.926,100.475L120.981,100.151L121.037,99.828L121.093,99.506L121.15,99.185L121.208,98.865L121.266,98.546L121.325,98.228L121.384,97.911L121.445,97.593L121.567,96.968L121.691,96.345L121.818,95.726L121.946,95.112L122.077,94.504L122.209,93.9L122.343,93.301L122.479,92.708L122.615,92.12L122.754,91.538L122.893,90.962L123.034,90.391L123.175,89.827L123.317,89.268L123.46,88.716L123.604,88.17L123.748,87.631L123.893,87.098L124.037,86.573L124.182,86.054L124.327,85.542L124.472,85.037L124.617,84.539L124.761,84.049L124.905,83.566L125.048,83.091L125.191,82.624L125.332,82.165L125.473,81.713L125.613,81.27L125.752,80.836L125.889,80.409L126.025,79.992L126.16,79.583L126.292,79.182L126.424,78.791L126.553,78.409L126.68,78.036L126.806,77.673L126.929,77.319L127.05,76.974L127.168,76.64L127.284,76.315L127.397,76L127.508,75.693L127.719,75.118L127.919,74.582L128.105,74.089L128.276,73.641L128.433,73.238L128.573,72.881L128.693,72.581L128.866,72.199L129.075,71.83L129.321,71.475L129.601,71.135L129.914,70.813L130.259,70.509L130.634,70.226L131.037,69.964L131.467,69.726L131.921,69.511L132.397,69.322L132.893,69.158L133.406,69.021L133.935,68.912L134.475,68.831L135.026,68.778L135.229,68.764L135.502,68.749L135.778,68.737L136.053,68.728L136.329,68.723L136.606,68.722L136.884,68.724L137.163,68.73L137.442,68.74L137.722,68.753L138.002,68.77L138.282,68.79L138.56,68.814L138.841,68.842L139.121,68.874L139.398,68.909L139.677,68.947L139.955,68.989L140.232,69.035L140.509,69.084L140.782,69.137L141.056,69.193L141.329,69.252L141.6,69.315L141.869,69.381L142.138,69.45L142.405,69.523L142.668,69.597L142.931,69.676L143.193,69.758L143.451,69.842L143.668,69.915L143.854,69.979L144.066,70.054L144.272,70.129L144.475,70.206L144.679,70.285L144.879,70.365L145.075,70.445L145.269,70.526L145.463,70.609L145.653,70.693L145.839,70.777L146.023,70.862L146.206,70.948L146.387,71.035L146.563,71.122L146.739,71.21L146.912,71.299L147.082,71.387L147.25,71.476L147.418,71.568L147.581,71.658L147.742,71.748L147.904,71.841L148.06,71.931L148.214,72.023L148.369,72.116L148.521,72.209L148.671,72.302L148.818,72.394L148.963,72.487L149.107,72.58L149.248,72.673L149.387,72.766L149.525,72.86L149.662,72.954L149.795,73.046L149.927,73.14L150.059,73.233L150.189,73.327L150.315,73.42L150.439,73.512L150.573,73.613L150.806,73.791L151.042,73.975L151.272,74.159L151.496,74.342L151.713,74.523L151.924,74.703L152.129,74.881L152.329,75.058L152.523,75.233L152.711,75.406L152.894,75.577L153.072,75.746L153.242,75.911L153.408,76.074L153.571,76.236L153.726,76.394L153.876,76.549L154.022,76.701L154.161,76.849L154.297,76.996L154.427,77.138L154.551,77.275L154.672,77.41L154.786,77.54L154.896,77.667L155.001,77.79L155.107,77.914L155.285,78.128L155.449,78.329L155.594,78.511L155.719,78.672L155.753,78.717L155.843,78.81L155.864,78.838L155.979,78.962L156.102,79.097L156.223,79.232L156.343,79.369L156.463,79.506L156.581,79.644L156.697,79.782L156.813,79.922L156.928,80.062L157.041,80.203L157.154,80.345L157.265,80.486L157.376,80.63L157.486,80.775L157.595,80.919L157.703,81.064L157.81,81.212L157.918,81.36L158.023,81.508L158.128,81.656L158.232,81.806L158.336,81.958L158.44,82.11L158.542,82.263L158.644,82.416L158.745,82.57L158.846,82.727L158.946,82.883L159.046,83.04L159.145,83.2L159.243,83.358L159.342,83.519L159.439,83.68L159.536,83.842L159.633,84.007L159.729,84.17L159.824,84.335L159.92,84.502L160.015,84.67L160.109,84.837L160.203,85.006L160.297,85.178L160.39,85.349L160.483,85.521L160.575,85.695L160.668,85.87L160.762,86.051L160.942,86.399L161.123,86.758L161.303,87.121L161.482,87.488L161.659,87.86L161.836,88.236L162.011,88.616L162.185,89L162.358,89.389L162.53,89.783L162.7,90.181L162.87,90.583L163.039,90.99L163.207,91.401L163.374,91.816L163.54,92.237L163.705,92.661L163.869,93.09L164.032,93.523L164.194,93.961L164.356,94.403L164.516,94.85L164.676,95.301L164.834,95.757L164.992,96.217L165.149,96.681L165.305,97.15L165.46,97.623L165.615,98.101L165.768,98.584L165.921,99.07L166.073,99.561L166.223,100.057L166.373,100.557L166.523,101.061L166.671,101.569L166.818,102.082L166.965,102.6L167.108,103.113L167.185,103.431L167.239,103.75L167.271,104.07L167.279,104.389L167.286,103.761L167.201,103.452L167.286,103.758L167.286,103.761L167.292,103.785L167.383,104.118L167.473,104.452L167.562,104.787L167.65,105.123L167.738,105.459L167.825,105.795L167.912,106.133L167.999,106.474L168.168,107.15L168.336,107.829L168.5,108.511L168.663,109.194L168.822,109.879L168.98,110.564L169.134,111.25L169.286,111.937L169.435,112.624L169.582,113.31L169.725,113.997L169.867,114.682L170.005,115.367L170.141,116.051L170.274,116.733L170.404,117.414L170.531,118.092L170.656,118.769L170.777,119.442L170.896,120.113L171.012,120.782L171.125,121.447L171.236,122.108L171.343,122.765L171.447,123.419L171.549,124.068L171.647,124.712L171.743,125.352L171.835,125.986L171.924,126.615L172.011,127.239L172.094,127.856L172.174,128.467L172.251,129.072L172.325,129.671L172.395,130.262L172.463,130.846L172.527,131.422L172.588,131.991L172.645,132.553L172.7,133.105L172.751,133.65L172.799,134.186L172.843,134.714L172.884,135.232L172.922,135.741L172.956,136.241L172.986,136.731L173.013,137.212L173.037,137.683L173.056,138.14L173.065,138.37L173.073,138.595L173.08,138.817L173.085,139.036L173.09,139.252L173.094,139.467L173.097,139.678L173.099,139.888L173.1,140.094L173.1,140.298L173.098,140.501L173.096,140.7L173.093,140.896L173.089,141.09L173.083,141.283L173.077,141.475L173.069,141.647L173.061,141.818L173.052,141.987L173.041,142.157L173.029,142.324L173.016,142.492L173.002,142.659L172.987,142.825L172.971,142.989L172.953,143.154L172.935,143.318L172.915,143.481L172.894,143.644L172.873,143.806L172.85,143.966L172.826,144.126L172.802,144.286L172.776,144.444L172.749,144.603L172.721,144.759L172.693,144.915L172.663,145.071L172.632,145.226L172.601,145.381L172.568,145.535L172.535,145.686L172.501,145.838L172.465,145.99L172.429,146.14L172.392,146.289L172.354,146.439L172.315,146.587L172.276,146.734L172.235,146.881L172.194,147.026L172.152,147.171L172.109,147.315L172.065,147.46L172.02,147.603L171.976,147.743L171.93,147.884L171.883,148.025L171.835,148.165L171.785,148.31L171.688,148.579L171.587,148.851L171.483,149.121L171.376,149.387L171.267,149.649L171.155,149.909L171.041,150.166L170.924,150.419L170.806,150.67L170.685,150.917L170.563,151.161L170.438,151.402L170.312,151.64L170.184,151.874L170.055,152.106L169.923,152.334L169.791,152.56L169.657,152.782L169.521,153L169.385,153.216L169.247,153.429L169.109,153.638L168.969,153.845L168.829,154.048L168.688,154.248L168.546,154.445L168.403,154.639L168.261,154.83L168.117,155.018L167.973,155.203L167.83,155.384L167.686,155.562L167.541,155.738L167.397,155.91L167.253,156.08L167.109,156.245L166.965,156.408L166.822,156.569L166.679,156.726L166.536,156.88L166.394,157.031L166.268,157.163L166.252,157.179L166.238,157.194L166.116,157.32L165.98,157.458L165.846,157.592L165.712,157.724L165.58,157.853L165.449,157.979L165.319,158.102L165.19,158.223L165.063,158.339L164.937,158.454L164.813,158.566L164.69,158.674L164.569,158.78L164.451,158.883L164.333,158.983L164.211,159.086L163.995,159.265L163.779,159.44L163.573,159.603L163.377,159.755L163.191,159.895L163.018,160.024L162.856,160.141L162.731,160.23L162.345,160.486L161.933,160.72L161.499,160.932L161.043,161.121L160.569,161.286ZM141.933,84.061L141.928,84.055L141.817,83.891L141.814,83.899L141.908,84.05L141.921,84.067L142.144,84.336L142.188,84.386L141.933,84.061ZM153.023,149.347L153.107,149.253L153.192,149.158L153.277,149.059L153.362,148.96L153.447,148.858L153.532,148.754L153.618,148.648L153.704,148.539L153.789,148.43L153.875,148.318L153.961,148.203L154.046,148.087L154.131,147.969L154.216,147.849L154.3,147.726L154.384,147.602L154.468,147.476L154.551,147.347L154.633,147.217L154.715,147.084L154.796,146.95L154.877,146.813L154.956,146.675L155.035,146.535L155.113,146.391L155.19,146.247L155.265,146.1L155.34,145.952L155.414,145.801L155.486,145.648L155.557,145.493L155.627,145.336L155.695,145.177L155.762,145.015L155.828,144.852L155.892,144.687L155.954,144.519L156.017,144.343L156.045,144.264L156.074,144.178L156.103,144.092L156.131,144.005L156.16,143.915L156.187,143.827L156.214,143.74L156.241,143.65L156.267,143.56L156.293,143.469L156.318,143.378L156.342,143.287L156.366,143.194L156.39,143.103L156.413,143.009L156.436,142.914L156.457,142.821L156.479,142.726L156.5,142.63L156.52,142.534L156.54,142.438L156.559,142.341L156.578,142.243L156.596,142.145L156.614,142.045L156.63,141.946L156.647,141.846L156.662,141.746L156.677,141.644L156.692,141.542L156.705,141.44L156.718,141.337L156.731,141.234L156.742,141.13L156.753,141.026L156.764,140.92L156.774,140.813L156.783,140.708L156.791,140.6L156.798,140.492L156.805,140.384L156.811,140.275L156.817,140.166L156.821,140.057L156.826,139.925L156.83,139.786L156.833,139.643L156.835,139.494L156.837,139.342L156.838,139.186L156.838,139.025L156.837,138.86L156.836,138.691L156.833,138.518L156.83,138.342L156.826,138.161L156.821,137.977L156.816,137.79L156.809,137.599L156.802,137.408L156.785,137.003L156.764,136.591L156.74,136.165L156.713,135.727L156.682,135.277L156.648,134.816L156.611,134.343L156.57,133.86L156.526,133.367L156.479,132.863L156.428,132.35L156.375,131.827L156.318,131.296L156.258,130.756L156.194,130.207L156.128,129.651L156.058,129.087L155.986,128.516L155.91,127.938L155.831,127.353L155.749,126.762L155.664,126.165L155.577,125.562L155.486,124.954L155.392,124.34L155.296,123.722L155.196,123.1L155.094,122.473L154.989,121.842L154.881,121.208L154.77,120.571L154.657,119.93L154.541,119.287L154.422,118.642L154.3,117.994L154.176,117.345L154.049,116.695L153.92,116.043L153.788,115.39L153.654,114.738L153.517,114.084L153.377,113.431L153.236,112.779L153.092,112.127L152.945,111.476L152.796,110.826L152.645,110.178L152.492,109.533L152.336,108.889L152.178,108.248L152.017,107.607L151.937,107.292L151.856,106.975L151.774,106.658L151.691,106.343L151.608,106.029L151.525,105.715L151.441,105.403L151.357,105.092L151.272,104.782L151.185,104.468L151.089,104.047L151.033,103.625L151.017,103.203L151.01,103.84L151.05,103.981L150.913,103.5L150.776,103.022L150.638,102.55L150.5,102.083L150.361,101.62L150.222,101.163L150.083,100.711L149.942,100.264L149.802,99.822L149.661,99.385L149.519,98.954L149.377,98.528L149.235,98.107L149.092,97.691L148.95,97.281L148.806,96.876L148.663,96.476L148.519,96.082L148.375,95.693L148.23,95.31L148.086,94.932L147.941,94.56L147.797,94.194L147.652,93.833L147.507,93.478L147.362,93.128L147.216,92.785L147.072,92.447L146.927,92.116L146.782,91.79L146.637,91.47L146.492,91.156L146.348,90.849L146.204,90.547L146.061,90.252L145.918,89.963L145.775,89.681L145.629,89.399L145.561,89.268L145.491,89.135L145.42,89.002L145.349,88.871L145.279,88.742L145.21,88.615L145.14,88.49L145.07,88.364L145,88.242L144.932,88.122L144.863,88.003L144.794,87.885L144.726,87.77L144.658,87.656L144.59,87.544L144.523,87.435L144.455,87.325L144.389,87.219L144.322,87.114L144.256,87.01L144.191,86.91L144.126,86.81L144.061,86.712L143.996,86.616L143.933,86.523L143.871,86.432L143.807,86.341L143.745,86.252L143.683,86.166L143.623,86.082L143.563,86L143.503,85.919L143.443,85.84L143.385,85.765L143.328,85.691L143.271,85.618L143.216,85.548L143.16,85.479L143.106,85.413L143.054,85.35L143.001,85.287L142.95,85.227L142.9,85.17L142.851,85.115L142.802,85.06L142.756,85.01L142.711,84.961L142.667,84.914L142.625,84.87L142.56,84.804L142.394,84.62L142.396,84.623L142.021,84.23L141.908,84.05L141.809,83.914L141.729,84.16L141.6,84.561L141.47,84.97L141.338,85.387L141.205,85.812L141.072,86.245L140.937,86.685L140.803,87.132L140.667,87.587L140.531,88.049L140.395,88.517L140.259,88.993L140.122,89.475L139.986,89.964L139.849,90.459L139.713,90.961L139.578,91.469L139.442,91.982L139.308,92.502L139.174,93.027L139.041,93.558L138.909,94.094L138.778,94.635L138.648,95.182L138.52,95.733L138.393,96.29L138.267,96.851L138.143,97.417L138.021,97.987L137.901,98.561L137.782,99.139L137.666,99.722L137.551,100.311L137.496,100.603L137.44,100.899L137.385,101.195L137.331,101.492L137.277,101.791L137.224,102.089L137.171,102.389L137.12,102.69L137.069,102.991L137.018,103.293L136.969,103.596L136.92,103.9L136.871,104.204L136.824,104.509L136.777,104.815L136.732,105.121L136.687,105.428L136.642,105.736L136.599,106.044L136.556,106.353L136.514,106.662L136.474,106.972L136.434,107.282L136.395,107.593L136.356,107.905L136.319,108.217L136.283,108.529L136.248,108.842L136.213,109.155L136.18,109.469L136.147,109.783L136.116,110.097L136.085,110.412L136.056,110.726L136.028,111.042L136,111.358L135.974,111.673L135.949,111.99L135.925,112.306L135.902,112.622L135.88,112.94L135.86,113.256L135.84,113.573L135.822,113.89L135.805,114.208L135.789,114.525L135.774,114.843L135.76,115.16L135.748,115.478L135.737,115.795L135.727,116.113L135.718,116.431L135.711,116.748L135.705,117.065L135.7,117.383L135.697,117.7L135.695,118.018L135.694,118.335L135.694,118.651L135.696,118.968L135.7,119.285L135.704,119.601L135.71,119.917L135.718,120.233L135.727,120.549L135.737,120.864L135.749,121.179L135.762,121.493L135.777,121.808L135.793,122.122L135.811,122.435L135.83,122.749L135.85,123.061L135.873,123.373L135.896,123.685L135.922,123.997L135.948,124.307L135.977,124.617L136.007,124.927L136.038,125.237L136.071,125.545L136.106,125.852L136.142,126.16L136.18,126.467L136.22,126.772L136.261,127.078L136.304,127.382L136.348,127.686L136.394,127.989L136.442,128.292L136.492,128.593L136.543,128.894L136.596,129.194L136.65,129.492L136.707,129.79L136.765,130.088L136.825,130.384L136.886,130.679L136.95,130.974L137.015,131.267L137.081,131.559L137.15,131.851L137.22,132.141L137.292,132.43L137.366,132.719L137.442,133.006L137.519,133.292L137.599,133.577L137.68,133.86L137.763,134.143L137.847,134.424L137.934,134.704L138.022,134.983L138.112,135.261L138.204,135.537L138.298,135.812L138.394,136.086L138.491,136.358L138.591,136.629L138.692,136.899L138.795,137.167L138.9,137.433L139.007,137.699L139.115,137.963L139.226,138.225L139.338,138.486L139.452,138.746L139.568,139.004L139.686,139.26L139.806,139.515L139.927,139.768L140.051,140.02L140.176,140.27L140.306,140.524L140.368,140.643L140.432,140.766L140.498,140.888L140.563,141.011L140.629,141.132L140.696,141.255L140.763,141.376L140.859,141.546L140.901,141.625L140.916,141.652L140.935,141.685L140.961,141.729L140.994,141.782L141.035,141.848L141.083,141.924L141.138,142.008L141.2,142.1L141.27,142.202L141.347,142.312L141.436,142.436L141.476,142.491L141.523,142.555L141.57,142.618L141.621,142.684L141.674,142.753L141.727,142.822L141.783,142.892L141.842,142.965L141.901,143.038L141.963,143.113L142.026,143.19L142.091,143.266L142.158,143.345L142.227,143.424L142.297,143.504L142.37,143.585L142.444,143.668L142.521,143.752L142.599,143.835L142.679,143.92L142.761,144.006L142.845,144.092L142.93,144.179L143.018,144.267L143.106,144.354L143.197,144.442L143.29,144.531L143.384,144.62L143.481,144.709L143.579,144.799L143.679,144.89L143.782,144.98L143.885,145.071L143.989,145.16L144.097,145.251L144.207,145.342L144.317,145.432L144.429,145.522L144.543,145.612L144.659,145.703L144.778,145.793L144.897,145.883L145.018,145.972L145.141,146.061L145.267,146.15L145.394,146.239L145.521,146.327L145.652,146.415L145.784,146.502L145.918,146.588L146.054,146.675L146.191,146.76L146.33,146.845L146.471,146.929L146.615,147.013L146.769,147.102L146.832,147.137L146.905,147.178L146.981,147.22L147.054,147.26L147.13,147.301L147.205,147.341L147.28,147.381L147.359,147.422L147.434,147.461L147.512,147.501L147.59,147.54L147.668,147.579L147.748,147.619L147.828,147.657L147.906,147.695L147.987,147.733L148.068,147.772L148.151,147.81L148.232,147.848L148.315,147.885L148.398,147.922L148.48,147.958L148.565,147.995L148.65,148.032L148.735,148.068L148.821,148.104L148.907,148.14L148.994,148.175L149.082,148.211L149.17,148.245L149.258,148.28L149.348,148.315L149.438,148.349L149.527,148.382L149.619,148.416L149.711,148.449L149.803,148.482L149.895,148.515L149.989,148.547L150.083,148.58L150.179,148.612L150.273,148.643L150.369,148.674L150.467,148.706L150.564,148.736L150.663,148.767L150.762,148.797L150.861,148.826L150.96,148.856L151.062,148.885L151.164,148.914L151.265,148.942L151.369,148.97L151.473,148.998L151.579,149.026L151.684,149.053L151.788,149.079L151.895,149.105L152.005,149.132L152.113,149.157L152.221,149.182L152.332,149.208L152.443,149.232L152.555,149.256L152.668,149.28L152.781,149.303L152.895,149.326L153.011,149.349L153.02,149.351L153.023,149.347ZM155.61,78.555L155.481,78.416L155.64,78.595L155.609,78.56L155.664,78.619L155.61,78.555ZM155.607,78.559L155.528,78.476L155.63,78.591L155.683,78.645L155.607,78.559ZM155.63,78.591L155.601,78.561L155.637,78.598L155.63,78.591ZM155.713,78.679L155.712,78.678L155.708,78.673L155.7,78.664L155.637,78.598L155.747,78.721L155.713,78.679ZM155.687,78.649L155.683,78.645L155.701,78.665L155.687,78.649ZM155.79,78.767L155.713,78.678L155.761,78.737L155.801,78.781L155.79,78.767ZM155.753,78.717L155.736,78.7L155.75,78.717L155.766,78.733L155.753,78.717ZM155.88,78.884L155.836,78.827L155.761,78.737L155.747,78.721L155.897,78.907L155.88,78.884ZM155.864,78.838L155.854,78.828L155.766,78.733L155.81,78.792L155.831,78.815L156.06,79.108L155.864,78.838ZM155.859,78.855L155.846,78.839L155.88,78.884L155.897,78.907L155.859,78.855ZM142.188,84.386L142.2,84.402L142.248,84.456L142.262,84.471L142.188,84.386ZM142.248,84.456L142.21,84.414L142.23,84.439L142.394,84.62L142.248,84.456ZM155.897,78.907L155.905,78.917L155.897,78.907ZM155.901,78.912L155.897,78.907L155.913,78.929L155.901,78.912ZM156.37,79.533L156.148,79.228L156.349,79.526L156.461,79.704L156.37,79.533Z" style="fill:rgb(52,49,48);"/>
                <path d="M159.148,103.797L159.148,103.795C156.152,92.986 152.653,85.321 149.028,81.628C149.021,81.62 149.019,81.611 149.013,81.603C148.997,81.587 148.983,81.57 148.969,81.552C148.947,81.527 148.923,81.504 148.904,81.477C148.899,81.471 148.894,81.467 148.89,81.461C148.857,81.415 145.651,76.935 140.815,75.299C139.4,74.81 137.959,74.62 136.514,74.73C134.227,80.435 119.67,119 133.355,143.338C133.605,143.813 139.175,154.101 155.191,155.633C155.723,155.688 156.258,155.726 156.807,155.757C157.305,155.406 158.326,154.632 159.472,153.441C159.472,153.44 159.473,153.44 159.473,153.44C161.843,150.977 164.717,146.779 164.949,140.766C165.207,133.928 162.938,117.439 159.148,103.797Z" style="fill:rgb(246,206,217);fill-rule:nonzero;"/>
            </g>
            <g transform="matrix(2.63883,0,0,2.63883,-3523.61,-1303.46)">
                <circle cx="1570.37" cy="586.945" r="1.616" style="fill:rgb(50,50,50);stroke:rgb(52,49,48);stroke-width:0.08px;"/>
            </g>
        </g>
        <g transform="matrix(0.827005,0,0,0.827005,-167.757,-19.5851)">
            <text x="694.145px" y="460.636px" style="font-family:'Sacramento-Regular', 'Sacramento';font-size:50px;fill:rgb(35,31,32);fill-opacity:0.603922;">atelier &amp; boutique</text>
        </g>
    </g>
</svg>
